<svg xmlns="http://www.w3.org/2000/svg" viewBox="0 0 1600 1200" width="1600" height="1200"><g transform="translate(170.0 323.0) rotate(0.0 172.5 172.5) scale(1.0849056603773586 1.0849056603773586)"><svg width="318" height="318" viewBox="0 0 318 318"><g fill="#383a48"><circle cx="313" cy="93" r="5"/><circle cx="313" cy="137" r="5"/><circle cx="313" cy="181" r="5"/><circle cx="313" cy="225" r="5"/><circle cx="269" cy="49" r="5"/><circle cx="269" cy="93" r="5"/><circle cx="269" cy="137" r="5"/><circle cx="269" cy="181" r="5"/><circle cx="269" cy="225" r="5"/><circle cx="269" cy="269" r="5"/><circle cx="225" cy="5" r="5"/><circle cx="225" cy="49" r="5"/><circle cx="225" cy="93" r="5"/><circle cx="225" cy="137" r="5"/><circle cx="225" cy="181" r="5"/><circle cx="225" cy="225" r="5"/><circle cx="225" cy="269" r="5"/><circle cx="225" cy="313" r="5"/><circle cx="181" cy="5" r="5"/><circle cx="181" cy="49" r="5"/><circle cx="181" cy="93" r="5"/><circle cx="181" cy="137" r="5"/><circle cx="181" cy="181" r="5"/><circle cx="181" cy="225" r="5"/><circle cx="181" cy="269" r="5"/><circle cx="181" cy="313" r="5"/><circle cx="137" cy="5" r="5"/><circle cx="137" cy="49" r="5"/><circle cx="137" cy="93" r="5"/><circle cx="137" cy="137" r="5"/><circle cx="137" cy="181" r="5"/><circle cx="137" cy="225" r="5"/><circle cx="137" cy="269" r="5"/><circle cx="137" cy="313" r="5"/><circle cx="93" cy="5" r="5"/><circle cx="93" cy="49" r="5"/><circle cx="93" cy="93" r="5"/><circle cx="93" cy="137" r="5"/><circle cx="93" cy="181" r="5"/><circle cx="93" cy="225" r="5"/><circle cx="93" cy="269" r="5"/><circle cx="93" cy="313" r="5"/><circle cx="49" cy="49" r="5"/><circle cx="49" cy="93" r="5"/><circle cx="49" cy="137" r="5"/><circle cx="49" cy="181" r="5"/><circle cx="49" cy="225" r="5"/><circle cx="49" cy="269" r="5"/><circle cx="5" cy="93" r="5"/><circle cx="5" cy="137" r="5"/><circle cx="5" cy="181" r="5"/><circle cx="5" cy="225" r="5"/></g></svg></g><g transform="translate(447.0 209.0) rotate(0.0 318.0 318.0) scale(0.9165585819282318 0.9165585819282318)"><svg width="693.9" height="693.9" viewBox="0 0 693.9 693.9"><path d="M5 5h683.9v683.9H5z" fill="#f3f6e6"/><path d="M670.7 693.9h-12c-2.8 0-5-2.2-5-5s2.2-5 5-5h12c2.8 0 5 2.2 5 5s-2.2 5-5 5zm-42 0h-12c-2.8 0-5-2.2-5-5s2.2-5 5-5h12c2.8 0 5 2.2 5 5s-2.2 5-5 5zm-42 0h-12c-2.8 0-5-2.2-5-5s2.2-5 5-5h12c2.8 0 5 2.2 5 5s-2.2 5-5 5zm-42 0h-12c-2.8 0-5-2.2-5-5s2.2-5 5-5h12c2.8 0 5 2.2 5 5s-2.2 5-5 5zm-42 0h-12c-2.8 0-5-2.2-5-5s2.2-5 5-5h12c2.8 0 5 2.2 5 5s-2.2 5-5 5zm-42 0h-12c-2.8 0-5-2.2-5-5s2.2-5 5-5h12c2.8 0 5 2.2 5 5s-2.2 5-5 5zm-42 0h-12c-2.8 0-5-2.2-5-5s2.2-5 5-5h12c2.8 0 5 2.2 5 5s-2.2 5-5 5zm-42 0h-12c-2.8 0-5-2.2-5-5s2.2-5 5-5h12c2.8 0 5 2.2 5 5s-2.2 5-5 5zm-42 0h-12c-2.8 0-5-2.2-5-5s2.2-5 5-5h12c2.8 0 5 2.2 5 5s-2.2 5-5 5zm-42 0h-12c-2.8 0-5-2.2-5-5s2.2-5 5-5h12c2.8 0 5 2.2 5 5s-2.2 5-5 5zm-42 0h-12c-2.8 0-5-2.2-5-5s2.2-5 5-5h12c2.8 0 5 2.2 5 5s-2.2 5-5 5zm-42 0h-12c-2.8 0-5-2.2-5-5s2.2-5 5-5h12c2.8 0 5 2.2 5 5s-2.2 5-5 5zm-42 0h-12c-2.8 0-5-2.2-5-5s2.2-5 5-5h12c2.8 0 5 2.2 5 5s-2.2 5-5 5zm-42 0h-12c-2.8 0-5-2.2-5-5s2.2-5 5-5h12c2.8 0 5 2.2 5 5s-2.2 5-5 5zm-42 0h-12c-2.8 0-5-2.2-5-5s2.2-5 5-5h12c2.8 0 5 2.2 5 5s-2.2 5-5 5zm-42 0h-12c-2.8 0-5-2.2-5-5s2.2-5 5-5h12c2.8 0 5 2.2 5 5s-2.2 5-5 5zM5 687.6c-2.8 0-5-2.2-5-5v-12c0-2.8 2.2-5 5-5s5 2.2 5 5v12c0 2.8-2.2 5-5 5zm683.9-5.5c-2.8 0-5-2.2-5-5v-12c0-2.8 2.2-5 5-5s5 2.2 5 5v12c0 2.8-2.2 5-5 5zM5 645.6c-2.8 0-5-2.2-5-5v-12c0-2.8 2.2-5 5-5s5 2.2 5 5v12c0 2.8-2.2 5-5 5zm683.9-5.5c-2.8 0-5-2.2-5-5v-12c0-2.8 2.2-5 5-5s5 2.2 5 5v12c0 2.8-2.2 5-5 5zM5 603.6c-2.8 0-5-2.2-5-5v-12c0-2.8 2.2-5 5-5s5 2.2 5 5v12c0 2.8-2.2 5-5 5zm683.9-5.5c-2.8 0-5-2.2-5-5v-12c0-2.8 2.2-5 5-5s5 2.2 5 5v12c0 2.8-2.2 5-5 5zM5 561.6c-2.8 0-5-2.2-5-5v-12c0-2.8 2.2-5 5-5s5 2.2 5 5v12c0 2.8-2.2 5-5 5zm683.9-5.5c-2.8 0-5-2.2-5-5v-12c0-2.8 2.2-5 5-5s5 2.2 5 5v12c0 2.8-2.2 5-5 5zM5 519.6c-2.8 0-5-2.2-5-5v-12c0-2.8 2.2-5 5-5s5 2.2 5 5v12c0 2.8-2.2 5-5 5zm683.9-5.5c-2.8 0-5-2.2-5-5v-12c0-2.8 2.2-5 5-5s5 2.2 5 5v12c0 2.8-2.2 5-5 5zM5 477.6c-2.8 0-5-2.2-5-5v-12c0-2.8 2.2-5 5-5s5 2.2 5 5v12c0 2.8-2.2 5-5 5zm683.9-5.5c-2.8 0-5-2.2-5-5v-12c0-2.8 2.2-5 5-5s5 2.2 5 5v12c0 2.8-2.2 5-5 5zM5 435.6c-2.8 0-5-2.2-5-5v-12c0-2.8 2.2-5 5-5s5 2.2 5 5v12c0 2.8-2.2 5-5 5zm683.9-5.5c-2.8 0-5-2.2-5-5v-12c0-2.8 2.2-5 5-5s5 2.2 5 5v12c0 2.8-2.2 5-5 5zM5 393.6c-2.8 0-5-2.2-5-5v-12c0-2.8 2.2-5 5-5s5 2.2 5 5v12c0 2.8-2.2 5-5 5zm683.9-5.5c-2.8 0-5-2.2-5-5v-12c0-2.8 2.2-5 5-5s5 2.2 5 5v12c0 2.8-2.2 5-5 5zM5 351.6c-2.8 0-5-2.2-5-5v-12c0-2.8 2.2-5 5-5s5 2.2 5 5v12c0 2.8-2.2 5-5 5zm683.9-5.5c-2.8 0-5-2.2-5-5v-12c0-2.8 2.2-5 5-5s5 2.2 5 5v12c0 2.8-2.2 5-5 5zM5 309.6c-2.8 0-5-2.2-5-5v-12c0-2.8 2.2-5 5-5s5 2.2 5 5v12c0 2.8-2.2 5-5 5zm683.9-5.5c-2.8 0-5-2.2-5-5v-12c0-2.8 2.2-5 5-5s5 2.2 5 5v12c0 2.8-2.2 5-5 5zM5 267.6c-2.8 0-5-2.2-5-5v-12c0-2.8 2.2-5 5-5s5 2.2 5 5v12c0 2.8-2.2 5-5 5zm683.9-5.5c-2.8 0-5-2.2-5-5v-12c0-2.8 2.2-5 5-5s5 2.2 5 5v12c0 2.8-2.2 5-5 5zM5 225.6c-2.8 0-5-2.2-5-5v-12c0-2.8 2.2-5 5-5s5 2.2 5 5v12c0 2.8-2.2 5-5 5zm683.9-5.5c-2.8 0-5-2.2-5-5v-12c0-2.8 2.2-5 5-5s5 2.2 5 5v12c0 2.8-2.2 5-5 5zM5 183.6c-2.8 0-5-2.2-5-5v-12c0-2.8 2.2-5 5-5s5 2.2 5 5v12c0 2.8-2.2 5-5 5zm683.9-5.5c-2.8 0-5-2.2-5-5v-12c0-2.8 2.2-5 5-5s5 2.2 5 5v12c0 2.8-2.2 5-5 5zM5 141.6c-2.8 0-5-2.2-5-5v-12c0-2.8 2.2-5 5-5s5 2.2 5 5v12c0 2.8-2.2 5-5 5zm683.9-5.5c-2.8 0-5-2.2-5-5v-12c0-2.8 2.2-5 5-5s5 2.2 5 5v12c0 2.8-2.2 5-5 5zM5 99.6c-2.8 0-5-2.2-5-5v-12c0-2.8 2.2-5 5-5s5 2.2 5 5v12c0 2.8-2.2 5-5 5zm683.9-5.5c-2.8 0-5-2.2-5-5v-12c0-2.8 2.2-5 5-5s5 2.2 5 5v12c0 2.8-2.2 5-5 5zM5 57.6c-2.8 0-5-2.2-5-5v-12c0-2.8 2.2-5 5-5s5 2.2 5 5v12c0 2.8-2.2 5-5 5zm683.9-5.5c-2.8 0-5-2.2-5-5v-12c0-2.8 2.2-5 5-5s5 2.2 5 5v12c0 2.8-2.2 5-5 5zM5 15.6c-2.8 0-5-2.2-5-5V5c0-2.8 2.2-5 5-5h12c2.8 0 5 2.2 5 5s-2.2 5-5 5h-7v.6c0 2.8-2.2 5-5 5zM688.9 10H677c-2.8 0-5-2.2-5-5s2.2-5 5-5h11.9c2.8 0 5 2.2 5 5s-2.2 5-5 5zM647 10h-12c-2.8 0-5-2.2-5-5s2.2-5 5-5h12c2.8 0 5 2.2 5 5s-2.2 5-5 5zm-42 0h-12c-2.8 0-5-2.2-5-5s2.2-5 5-5h12c2.8 0 5 2.2 5 5s-2.2 5-5 5zm-42 0h-12c-2.8 0-5-2.2-5-5s2.2-5 5-5h12c2.8 0 5 2.2 5 5s-2.2 5-5 5zm-42 0h-12c-2.8 0-5-2.2-5-5s2.2-5 5-5h12c2.8 0 5 2.2 5 5s-2.2 5-5 5zm-42 0h-12c-2.8 0-5-2.2-5-5s2.2-5 5-5h12c2.8 0 5 2.2 5 5s-2.2 5-5 5zm-42 0h-12c-2.8 0-5-2.2-5-5s2.2-5 5-5h12c2.8 0 5 2.2 5 5s-2.2 5-5 5zm-42 0h-12c-2.8 0-5-2.2-5-5s2.2-5 5-5h12c2.8 0 5 2.2 5 5s-2.2 5-5 5zm-42 0h-12c-2.8 0-5-2.2-5-5s2.2-5 5-5h12c2.8 0 5 2.2 5 5s-2.2 5-5 5zm-42 0h-12c-2.8 0-5-2.2-5-5s2.2-5 5-5h12c2.8 0 5 2.2 5 5s-2.2 5-5 5zm-42 0h-12c-2.8 0-5-2.2-5-5s2.2-5 5-5h12c2.8 0 5 2.2 5 5s-2.2 5-5 5zm-42 0h-12c-2.8 0-5-2.2-5-5s2.2-5 5-5h12c2.8 0 5 2.2 5 5s-2.2 5-5 5zm-42 0h-12c-2.8 0-5-2.2-5-5s2.2-5 5-5h12c2.8 0 5 2.2 5 5s-2.2 5-5 5zm-42 0h-12c-2.8 0-5-2.2-5-5s2.2-5 5-5h12c2.8 0 5 2.2 5 5s-2.2 5-5 5zm-42 0H89c-2.8 0-5-2.2-5-5s2.2-5 5-5h12c2.8 0 5 2.2 5 5s-2.2 5-5 5zm-42 0H47c-2.8 0-5-2.2-5-5s2.2-5 5-5h12c2.8 0 5 2.2 5 5s-2.2 5-5 5z" fill="#383a48"/><path d="M5 5h683.9v190.2H5z" fill="#f3f6e6"/><path d="M681 200.2h-12c-2.8 0-5-2.2-5-5s2.2-5 5-5h12c2.8 0 5 2.2 5 5s-2.2 5-5 5zm-42 0h-12c-2.8 0-5-2.2-5-5s2.2-5 5-5h12c2.8 0 5 2.2 5 5s-2.2 5-5 5zm-42 0h-12c-2.8 0-5-2.2-5-5s2.2-5 5-5h12c2.8 0 5 2.2 5 5s-2.2 5-5 5zm-42 0h-12c-2.8 0-5-2.2-5-5s2.2-5 5-5h12c2.8 0 5 2.2 5 5s-2.2 5-5 5zm-42 0h-12c-2.8 0-5-2.2-5-5s2.2-5 5-5h12c2.8 0 5 2.2 5 5s-2.2 5-5 5zm-42 0h-12c-2.8 0-5-2.2-5-5s2.2-5 5-5h12c2.8 0 5 2.2 5 5s-2.2 5-5 5zm-42 0h-12c-2.8 0-5-2.2-5-5s2.2-5 5-5h12c2.8 0 5 2.2 5 5s-2.2 5-5 5zm-42 0h-12c-2.8 0-5-2.2-5-5s2.2-5 5-5h12c2.8 0 5 2.2 5 5s-2.2 5-5 5zm-42 0h-12c-2.8 0-5-2.2-5-5s2.2-5 5-5h12c2.8 0 5 2.2 5 5s-2.2 5-5 5zm-42 0h-12c-2.8 0-5-2.2-5-5s2.2-5 5-5h12c2.8 0 5 2.2 5 5s-2.2 5-5 5zm-42 0h-12c-2.8 0-5-2.2-5-5s2.2-5 5-5h12c2.8 0 5 2.2 5 5s-2.2 5-5 5zm-42 0h-12c-2.8 0-5-2.2-5-5s2.2-5 5-5h12c2.8 0 5 2.2 5 5s-2.2 5-5 5zm-42 0h-12c-2.8 0-5-2.2-5-5s2.2-5 5-5h12c2.8 0 5 2.2 5 5s-2.2 5-5 5zm-42 0h-12c-2.8 0-5-2.2-5-5s2.2-5 5-5h12c2.8 0 5 2.2 5 5s-2.2 5-5 5zm-42 0H81c-2.8 0-5-2.2-5-5s2.2-5 5-5h12c2.8 0 5 2.2 5 5s-2.2 5-5 5zm-42 0H39c-2.8 0-5-2.2-5-5s2.2-5 5-5h12c2.8 0 5 2.2 5 5s-2.2 5-5 5zm-42 0H5c-2.8 0-5-2.2-5-5v-8c0-2.8 2.2-5 5-5s5 2.2 5 5v3.1c2.3.5 4 2.5 4 4.9 0 2.8-2.2 5-5 5zm679.9-22.1c-2.8 0-5-2.2-5-5v-12c0-2.8 2.2-5 5-5s5 2.2 5 5v12c0 2.8-2.2 5-5 5zM5 162.2c-2.8 0-5-2.2-5-5v-12c0-2.8 2.2-5 5-5s5 2.2 5 5v12c0 2.8-2.2 5-5 5zm683.9-26.1c-2.8 0-5-2.2-5-5v-12c0-2.8 2.2-5 5-5s5 2.2 5 5v12c0 2.8-2.2 5-5 5zM5 120.2c-2.8 0-5-2.2-5-5v-12c0-2.8 2.2-5 5-5s5 2.2 5 5v12c0 2.8-2.2 5-5 5zm683.9-26.1c-2.8 0-5-2.2-5-5v-12c0-2.8 2.2-5 5-5s5 2.2 5 5v12c0 2.8-2.2 5-5 5zM5 78.2c-2.8 0-5-2.2-5-5v-12c0-2.8 2.2-5 5-5s5 2.2 5 5v12c0 2.8-2.2 5-5 5zm683.9-26.1c-2.8 0-5-2.2-5-5v-12c0-2.8 2.2-5 5-5s5 2.2 5 5v12c0 2.8-2.2 5-5 5zM5 36.2c-2.8 0-5-2.2-5-5v-12c0-2.8 2.2-5 5-5s5 2.2 5 5v12c0 2.8-2.2 5-5 5zM688.9 10H677c-2.8 0-5-2.2-5-5s2.2-5 5-5h11.9c2.8 0 5 2.2 5 5s-2.2 5-5 5zM647 10h-12c-2.8 0-5-2.2-5-5s2.2-5 5-5h12c2.8 0 5 2.2 5 5s-2.2 5-5 5zm-42 0h-12c-2.8 0-5-2.2-5-5s2.2-5 5-5h12c2.8 0 5 2.2 5 5s-2.2 5-5 5zm-42 0h-12c-2.8 0-5-2.2-5-5s2.2-5 5-5h12c2.8 0 5 2.2 5 5s-2.2 5-5 5zm-42 0h-12c-2.8 0-5-2.2-5-5s2.2-5 5-5h12c2.8 0 5 2.2 5 5s-2.2 5-5 5zm-42 0h-12c-2.8 0-5-2.2-5-5s2.2-5 5-5h12c2.8 0 5 2.2 5 5s-2.2 5-5 5zm-42 0h-12c-2.8 0-5-2.2-5-5s2.2-5 5-5h12c2.8 0 5 2.2 5 5s-2.2 5-5 5zm-42 0h-12c-2.8 0-5-2.2-5-5s2.2-5 5-5h12c2.8 0 5 2.2 5 5s-2.2 5-5 5zm-42 0h-12c-2.8 0-5-2.2-5-5s2.2-5 5-5h12c2.8 0 5 2.2 5 5s-2.2 5-5 5zm-42 0h-12c-2.8 0-5-2.2-5-5s2.2-5 5-5h12c2.8 0 5 2.2 5 5s-2.2 5-5 5zm-42 0h-12c-2.8 0-5-2.2-5-5s2.2-5 5-5h12c2.8 0 5 2.2 5 5s-2.2 5-5 5zm-42 0h-12c-2.8 0-5-2.2-5-5s2.2-5 5-5h12c2.8 0 5 2.2 5 5s-2.2 5-5 5zm-42 0h-12c-2.8 0-5-2.2-5-5s2.2-5 5-5h12c2.8 0 5 2.2 5 5s-2.2 5-5 5zm-42 0h-12c-2.8 0-5-2.2-5-5s2.2-5 5-5h12c2.8 0 5 2.2 5 5s-2.2 5-5 5zm-42 0H89c-2.8 0-5-2.2-5-5s2.2-5 5-5h12c2.8 0 5 2.2 5 5s-2.2 5-5 5zm-42 0H47c-2.8 0-5-2.2-5-5s2.2-5 5-5h12c2.8 0 5 2.2 5 5s-2.2 5-5 5zm-42 0H5c-2.8 0-5-2.2-5-5s2.2-5 5-5h12c2.8 0 5 2.2 5 5s-2.2 5-5 5z" fill="#383a48"/><circle cx="86.8" cy="100.2" fill="#e0719e" r="26.3"/><path d="M86.8 131.5c-17.3 0-31.3-14-31.3-31.3s14-31.3 31.3-31.3 31.3 14 31.3 31.3-14 31.3-31.3 31.3zm0-52.6c-11.7 0-21.3 9.6-21.3 21.3s9.6 21.3 21.3 21.3 21.3-9.6 21.3-21.3-9.6-21.3-21.3-21.3z" fill="#383a48"/><circle cx="167.3" cy="100.2" fill="#f6e049" r="26.3"/><path d="M167.3 131.5c-17.3 0-31.3-14-31.3-31.3s14-31.3 31.3-31.3 31.3 14 31.3 31.3-14 31.3-31.3 31.3zm0-52.6c-11.7 0-21.3 9.6-21.3 21.3s9.6 21.3 21.3 21.3 21.3-9.6 21.3-21.3-9.6-21.3-21.3-21.3z" fill="#383a48"/><circle cx="247.8" cy="100.2" fill="#7fd6c2" r="26.3"/><path d="M247.8 131.5c-17.3 0-31.3-14-31.3-31.3s14-31.3 31.3-31.3 31.3 14 31.3 31.3-14 31.3-31.3 31.3zm0-52.6c-11.7 0-21.3 9.6-21.3 21.3s9.6 21.3 21.3 21.3 21.3-9.6 21.3-21.3-9.6-21.3-21.3-21.3z" fill="#383a48"/></svg></g><g transform="translate(653.0 431.0) rotate(0.0 299.0 241.5) scale(0.7017132128608308 0.7019328585961343)"><svg width="852.2" height="688.1" viewBox="0 0 852.2 688.1"><path d="M5.1 42.4h842.1v640.7H5.1z" fill="#f3f6e6"/><path d="M847.2 688.1H5.1a4.951 4.951 0 0 1-5-5V42.4a4.951 4.951 0 0 1 5-5h842.1a4.951 4.951 0 0 1 5 5v640.7a4.951 4.951 0 0 1-5 5zm-837.1-10h832.1V47.4H10.1z" fill="#383a48"/><path d="M5.1 5h842.1v166.5H5.1z" fill="#f6e049"/><path d="M847.2 176.5H5.1a4.951 4.951 0 0 1-5-5V5a4.951 4.951 0 0 1 5-5h842.1a4.951 4.951 0 0 1 5 5v166.5a4.951 4.951 0 0 1-5 5zm-837.1-10h832.1V10H10.1z" fill="#383a48"/><path d="M5.1 171.5h120.3v122H5.1z" fill="#f3f6e6"/><path d="M125.4 298.5H5.1a4.951 4.951 0 0 1-5-5v-122a4.951 4.951 0 0 1 5-5h120.3a4.951 4.951 0 0 1 5 5v122a5.015 5.015 0 0 1-5 5zm-115.3-10h110.3v-112H10.1z" fill="#383a48"/><path d="M65.2 361.7a60.2 60.2 0 0 0 60.2-60.2v-8H5.1v8a60.176 60.176 0 0 0 60.1 60.2z" fill="#f3f6e6"/><path d="M65.2 366.7A65.276 65.276 0 0 1 0 301.5v-8a4.951 4.951 0 0 1 5-5h120.3a4.951 4.951 0 0 1 5 5v8a65.126 65.126 0 0 1-65.1 65.2zm-55.1-68.2v3a55.2 55.2 0 0 0 110.4 0v-3z" fill="#383a48"/><path d="M125.4 171.5h120.3v122H125.4z" fill="#e0719e"/><path d="M245.7 298.5H125.4a4.951 4.951 0 0 1-5-5v-122a4.951 4.951 0 0 1 5-5h120.3a4.951 4.951 0 0 1 5 5v122a5.015 5.015 0 0 1-5 5zm-115.3-10h110.3v-112H130.4z" fill="#383a48"/><path d="M185.5 361.7a60.2 60.2 0 0 0 60.2-60.2v-8H125.4v8a60.176 60.176 0 0 0 60.1 60.2z" fill="#e0719e"/><path d="M185.5 366.7a65.276 65.276 0 0 1-65.2-65.2v-8a4.951 4.951 0 0 1 5-5h120.4a4.951 4.951 0 0 1 5 5v8a65.276 65.276 0 0 1-65.2 65.2zm-55.1-68.2v3a55.2 55.2 0 0 0 110.4 0v-3z" fill="#383a48"/><path d="M245.7 171.5H366v122H245.7z" fill="#f3f6e6"/><path d="M366 298.5H245.7a4.951 4.951 0 0 1-5-5v-122a4.951 4.951 0 0 1 5-5H366a4.951 4.951 0 0 1 5 5v122a4.951 4.951 0 0 1-5 5zm-115.3-10H361v-112H250.7z" fill="#383a48"/><path d="M305.8 361.7a60.2 60.2 0 0 0 60.2-60.2v-8H245.7v8a60.176 60.176 0 0 0 60.1 60.2z" fill="#f3f6e6"/><path d="M305.8 366.7a65.276 65.276 0 0 1-65.2-65.2v-8a4.951 4.951 0 0 1 5-5h120.3a4.951 4.951 0 0 1 5 5v8a65.126 65.126 0 0 1-65.1 65.2zm-55.1-68.2v3a55.2 55.2 0 0 0 110.4 0v-3z" fill="#383a48"/><path d="M366 171.5h120.3v122H366z" fill="#e0719e"/><path d="M486.3 298.5H366a4.951 4.951 0 0 1-5-5v-122a4.951 4.951 0 0 1 5-5h120.3a4.951 4.951 0 0 1 5 5v122a4.951 4.951 0 0 1-5 5zm-115.3-10h110.3v-112H371z" fill="#383a48"/><path d="M426.1 361.7a60.2 60.2 0 0 0 60.2-60.2v-8H366v8a60.176 60.176 0 0 0 60.1 60.2z" fill="#e0719e"/><path d="M426.1 366.7a65.276 65.276 0 0 1-65.2-65.2v-8a4.951 4.951 0 0 1 5-5h120.3a4.951 4.951 0 0 1 5 5v8a65.126 65.126 0 0 1-65.1 65.2zM371 298.5v3a55.2 55.2 0 1 0 110.4 0v-3z" fill="#383a48"/><path d="M486.3 171.5h120.3v122H486.3z" fill="#f3f6e6"/><path d="M606.6 298.5H486.3a4.951 4.951 0 0 1-5-5v-122a4.951 4.951 0 0 1 5-5h120.3a4.951 4.951 0 0 1 5 5v122a4.951 4.951 0 0 1-5 5zm-115.3-10h110.3v-112H491.3z" fill="#383a48"/><path d="M546.4 361.7a60.2 60.2 0 0 0 60.2-60.2v-8H486.3v8a60.176 60.176 0 0 0 60.1 60.2z" fill="#f3f6e6"/><path d="M546.4 366.7a65.276 65.276 0 0 1-65.2-65.2v-8a4.951 4.951 0 0 1 5-5h120.3a4.951 4.951 0 0 1 5 5v8a65.126 65.126 0 0 1-65.1 65.2zm-55.1-68.2v3a55.2 55.2 0 0 0 110.4 0v-3z" fill="#383a48"/><path d="M606.6 171.5h120.3v122H606.6z" fill="#e0719e"/><path d="M726.9 298.5H606.6a4.951 4.951 0 0 1-5-5v-122a4.951 4.951 0 0 1 5-5h120.3a4.951 4.951 0 0 1 5 5v122a4.951 4.951 0 0 1-5 5zm-115.3-10h110.3v-112H611.6z" fill="#383a48"/><path d="M666.7 361.7a60.2 60.2 0 0 0 60.2-60.2v-8H606.6v8a60.176 60.176 0 0 0 60.1 60.2z" fill="#e0719e"/><path d="M666.7 366.7a65.276 65.276 0 0 1-65.2-65.2v-8a4.951 4.951 0 0 1 5-5h120.3a4.951 4.951 0 0 1 5 5v8a65.126 65.126 0 0 1-65.1 65.2zm-55.1-68.2v3a55.2 55.2 0 0 0 110.4 0v-3z" fill="#383a48"/><path d="M726.9 171.5h120.3v122H726.9z" fill="#f3f6e6"/><path d="M847.2 298.5H726.9a4.951 4.951 0 0 1-5-5v-122a4.951 4.951 0 0 1 5-5h120.3a4.951 4.951 0 0 1 5 5v122a4.951 4.951 0 0 1-5 5zm-115.3-10h110.3v-112H731.9z" fill="#383a48"/><path d="M787.1 361.7a60.2 60.2 0 0 0 60.2-60.2v-8H727v8a60.048 60.048 0 0 0 60.1 60.2z" fill="#f3f6e6"/><path d="M787.1 366.7a65.276 65.276 0 0 1-65.2-65.2v-8a4.951 4.951 0 0 1 5-5h120.3a4.951 4.951 0 0 1 5 5v8a65.254 65.254 0 0 1-65.1 65.2zm-55.2-68.2v3a55.2 55.2 0 1 0 110.4 0v-3z" fill="#383a48"/><path d="M426.2 451.4h157.7v231.8H426.2z" fill="#aac6fc"/><path d="M583.9 688.1H426.2a4.951 4.951 0 0 1-5-5V451.4a4.951 4.951 0 0 1 5-5h157.7a4.951 4.951 0 0 1 5 5v231.8a4.93 4.93 0 0 1-5 4.9zm-152.7-10h147.7V456.4H431.2z" fill="#383a48"/><path d="M268.1 451.4H426v231.8H268.1z" fill="#aac6fc"/><path d="M426 688.1H268.1a4.951 4.951 0 0 1-5-5V451.4a4.951 4.951 0 0 1 5-5H426a4.951 4.951 0 0 1 5 5v231.8a4.93 4.93 0 0 1-5 4.9zm-152.9-10H421V456.4H273.1z" fill="#383a48"/><path d="M268.1 418.8h315.8v32.6H268.1z" fill="#f6e049"/><path d="M583.9 456.4H268.1a4.951 4.951 0 0 1-5-5v-32.6a4.951 4.951 0 0 1 5-5h315.8a4.951 4.951 0 0 1 5 5v32.6a5.015 5.015 0 0 1-5 5zm-310.8-10h305.8v-22.6H273.1z" fill="#383a48"/></svg></g><g transform="translate(865.0 208.0) rotate(0.0 37.0 63.0) scale(0.7551020408163265 0.7553594551820056)"><svg width="98" height="166.808" viewBox="0 0 98 166.808"><path d="m92.9 161.8-44-42-44 42V5h88z" fill="#e0719e"/><path d="M92.9 166.8a5.179 5.179 0 0 1-3.5-1.4l-40.5-38.7-40.5 38.7a4.915 4.915 0 0 1-5.4 1 5.053 5.053 0 0 1-3-4.6V5a4.951 4.951 0 0 1 5-5h88a4.951 4.951 0 0 1 5 5v156.8a5.053 5.053 0 0 1-3 4.6 5.923 5.923 0 0 1-2.1.4zm-44-52a5.372 5.372 0 0 1 3.5 1.4l35.5 33.9V10h-78v140.1l35.5-33.9a5.179 5.179 0 0 1 3.5-1.4z" fill="#383a48"/></svg></g><g transform="translate(1095.0 629.0) rotate(0.0 180.0 158.0) scale(0.7604562737642586 0.7608957380207079)"><svg width="473.4" height="415.3" viewBox="0 0 473.4 415.3"><circle cx="265.8" cy="207.7" fill="#f3f6e6" r="202.6"/><g fill="#383a48"><path d="M265.8 415.3c-114.5 0-207.6-93.1-207.6-207.6S151.3.1 265.8.1s207.6 93.1 207.6 207.6-93.1 207.6-207.6 207.6zm0-405.3c-109 0-197.6 88.7-197.6 197.6s88.7 197.6 197.6 197.6c109 0 197.6-88.7 197.6-197.6S374.8 10 265.8 10z"/><circle cx="457.1" cy="161.7" r="5"/><circle cx="457.1" cy="186.4" r="5"/><circle cx="457.1" cy="211" r="5"/><circle cx="457.1" cy="235.7" r="5"/><circle cx="432.5" cy="112.4" r="5"/><circle cx="432.5" cy="137" r="5"/><circle cx="432.5" cy="161.7" r="5"/><circle cx="432.5" cy="186.4" r="5"/><circle cx="432.5" cy="211" r="5"/><circle cx="432.5" cy="235.7" r="5"/><circle cx="432.5" cy="260.4" r="5"/><circle cx="432.5" cy="285" r="5"/><circle cx="407.8" cy="87.7" r="5"/><circle cx="407.8" cy="112.4" r="5"/><circle cx="407.8" cy="137" r="5"/><circle cx="407.8" cy="161.7" r="5"/><circle cx="407.8" cy="186.4" r="5"/><circle cx="407.8" cy="211" r="5"/><circle cx="407.8" cy="235.7" r="5"/><circle cx="407.8" cy="260.4" r="5"/><circle cx="407.8" cy="285" r="5"/><circle cx="407.8" cy="309.7" r="5"/><circle cx="407.8" cy="334.4" r="5"/><circle cx="383.1" cy="63" r="5"/><circle cx="383.1" cy="87.7" r="5"/><circle cx="383.1" cy="112.4" r="5"/><circle cx="383.1" cy="137" r="5"/><circle cx="383.1" cy="161.7" r="5"/><circle cx="383.1" cy="186.4" r="5"/><circle cx="383.1" cy="211" r="5"/><circle cx="383.1" cy="235.7" r="5"/><circle cx="383.1" cy="260.4" r="5"/><circle cx="383.1" cy="285" r="5"/><circle cx="383.1" cy="309.7" r="5"/><circle cx="383.1" cy="334.4" r="5"/><circle cx="383.1" cy="359" r="5"/><circle cx="358.5" cy="38.4" r="5"/><circle cx="358.5" cy="63" r="5"/><circle cx="358.5" cy="87.7" r="5"/><circle cx="358.5" cy="112.4" r="5"/><circle cx="358.5" cy="137" r="5"/><circle cx="358.5" cy="161.7" r="5"/><circle cx="358.5" cy="186.4" r="5"/><circle cx="358.5" cy="211" r="5"/><circle cx="358.5" cy="235.7" r="5"/><circle cx="358.5" cy="260.4" r="5"/><circle cx="358.5" cy="285" r="5"/><circle cx="358.5" cy="309.7" r="5"/><circle cx="358.5" cy="334.4" r="5"/><circle cx="358.5" cy="359" r="5"/><circle cx="333.8" cy="13.7" r="5"/><circle cx="333.8" cy="38.4" r="5"/><circle cx="333.8" cy="63" r="5"/><circle cx="333.8" cy="87.7" r="5"/><circle cx="333.8" cy="112.4" r="5"/><circle cx="333.8" cy="137" r="5"/><circle cx="333.8" cy="161.7" r="5"/><circle cx="333.8" cy="186.4" r="5"/><circle cx="333.8" cy="211" r="5"/><circle cx="333.8" cy="235.7" r="5"/><circle cx="333.8" cy="260.4" r="5"/><circle cx="333.8" cy="285" r="5"/><circle cx="333.8" cy="309.7" r="5"/><circle cx="333.8" cy="334.4" r="5"/><circle cx="333.8" cy="359" r="5"/><circle cx="333.8" cy="383.7" r="5"/><circle cx="309.1" cy="13.7" r="5"/><circle cx="309.1" cy="38.4" r="5"/><circle cx="309.1" cy="63" r="5"/><circle cx="309.1" cy="87.7" r="5"/><circle cx="309.1" cy="112.4" r="5"/><circle cx="309.1" cy="137" r="5"/><circle cx="309.1" cy="161.7" r="5"/><circle cx="309.1" cy="186.4" r="5"/><circle cx="309.1" cy="211" r="5"/><circle cx="309.1" cy="235.7" r="5"/><circle cx="309.1" cy="260.4" r="5"/><circle cx="309.1" cy="285" r="5"/><circle cx="309.1" cy="309.7" r="5"/><circle cx="309.1" cy="334.4" r="5"/><circle cx="309.1" cy="359" r="5"/><circle cx="309.1" cy="383.7" r="5"/><circle cx="284.5" cy="13.7" r="5"/><circle cx="284.5" cy="38.4" r="5"/><circle cx="284.5" cy="63" r="5"/><circle cx="284.5" cy="87.7" r="5"/><circle cx="284.5" cy="112.4" r="5"/><circle cx="284.5" cy="137" r="5"/><circle cx="284.5" cy="161.7" r="5"/><circle cx="284.5" cy="186.4" r="5"/><circle cx="284.5" cy="211" r="5"/><circle cx="284.5" cy="235.7" r="5"/><circle cx="284.5" cy="260.4" r="5"/><circle cx="284.5" cy="285" r="5"/><circle cx="284.5" cy="309.7" r="5"/><circle cx="284.5" cy="334.4" r="5"/><circle cx="284.5" cy="359" r="5"/><circle cx="284.5" cy="383.7" r="5"/><circle cx="284.5" cy="408.4" r="5"/><circle cx="259.8" cy="13.7" r="5"/><circle cx="259.8" cy="38.4" r="5"/><circle cx="259.8" cy="63" r="5"/><circle cx="259.8" cy="87.7" r="5"/><circle cx="259.8" cy="112.4" r="5"/><circle cx="259.8" cy="137" r="5"/><circle cx="259.8" cy="161.7" r="5"/><circle cx="259.8" cy="186.4" r="5"/><circle cx="259.8" cy="211" r="5"/><circle cx="259.8" cy="235.7" r="5"/><circle cx="259.8" cy="260.4" r="5"/><circle cx="259.8" cy="285" r="5"/><circle cx="259.8" cy="309.7" r="5"/><circle cx="259.8" cy="334.4" r="5"/><circle cx="259.8" cy="359" r="5"/><circle cx="259.8" cy="383.7" r="5"/><circle cx="259.8" cy="408.4" r="5"/><circle cx="235.1" cy="13.7" r="5"/><circle cx="235.1" cy="38.4" r="5"/><circle cx="235.1" cy="63" r="5"/><circle cx="235.1" cy="87.7" r="5"/><circle cx="235.1" cy="112.4" r="5"/><circle cx="235.1" cy="137" r="5"/><circle cx="235.1" cy="161.7" r="5"/><circle cx="235.1" cy="186.4" r="5"/><circle cx="235.1" cy="211" r="5"/><circle cx="235.1" cy="235.7" r="5"/><circle cx="235.1" cy="260.4" r="5"/><circle cx="235.1" cy="285" r="5"/><circle cx="235.1" cy="309.7" r="5"/><circle cx="235.1" cy="334.4" r="5"/><circle cx="235.1" cy="359" r="5"/><circle cx="235.1" cy="383.7" r="5"/><circle cx="235.1" cy="408.4" r="5"/></g><circle cx="207.6" cy="207.7" fill="#f3f6e6" r="202.6"/><path d="M207.6 415.3C93.1 415.3 0 322.2 0 207.7S93.1 0 207.6 0s207.6 93.1 207.6 207.6-93.1 207.7-207.6 207.7zm0-405.3C98.6 10 10 98.7 10 207.6s88.7 197.6 197.6 197.6c109 0 197.6-88.7 197.6-197.6S316.6 10 207.6 10z" fill="#383a48"/><circle cx="202.9" cy="207.7" fill="#aac6fc" r="155"/><path d="M222.1 83.3v26.5c24.1 2.3 42.3 9.6 59.7 20.2l-17.9 30.6a112.189 112.189 0 0 0-41.8-15.6v45.7c35.1 5.4 62.3 20.9 61.6 53.6-.9 35.4-27.9 54.6-61.4 59.4v28.4h-31.8v-27.6c-25.4-2.1-50.8-10.3-68.3-24.1l19.6-30.4c11.5 8.7 28.9 16.8 48.6 19.5v-46.1l-1.6-.3c-35.1-5.6-60.4-20.8-59.7-54.9.6-32.4 26.1-53.3 61.3-58.1V83.3zm-31.8 101.9v-39.5c-13.3 3.2-21.6 10.3-21.9 20.6-.1 10.1 7.9 15.4 21.9 18.9zm31.8 43.6v39.7c13.2-3.2 21.9-10.2 22.2-20.9.1-9.5-7.7-15.1-22.2-18.8z" fill="#f3f6e6"/><path d="M222.3 333.5h-31.8a1.538 1.538 0 0 1-1.5-1.5v-26.3c-26.6-2.5-51.3-11.3-67.7-24.3a1.429 1.429 0 0 1-.3-2l19.6-30.4a1.445 1.445 0 0 1 1-.7 1.383 1.383 0 0 1 1.2.3c12.2 9.3 29.3 16.3 46.1 18.9v-43.1l-.3-.1c-41.1-6.5-61.6-25.5-61-56.4.6-31.1 24-53.8 61.3-59.4V83a1.538 1.538 0 0 1 1.5-1.5h31.7a1.538 1.538 0 0 1 1.5 1.5v25.1c21.3 2.2 39.6 8.5 59 20.3a1.456 1.456 0 0 1 .5 2L265.2 161a1.6 1.6 0 0 1-.9.7 1.389 1.389 0 0 1-1.1-.2 112.794 112.794 0 0 0-39.5-15.1V189c40.9 6.7 62.2 25.6 61.6 54.9-.8 32.2-23.7 54.8-61.4 60.7v27.1c-.1 1.2-.8 1.8-1.6 1.8zm-30.3-3h28.8v-26.9a1.5 1.5 0 0 1 1.3-1.5c17.2-2.5 31.8-8.7 42.2-17.9 11.5-10.2 17.6-23.7 18-40.1.8-35.2-32.4-47.7-60.3-52a1.514 1.514 0 0 1-1.3-1.5v-45.7a1.433 1.433 0 0 1 .5-1.1 1.314 1.314 0 0 1 1.2-.3 115.578 115.578 0 0 1 41.1 15l16.4-28.1c-18.9-11.3-36.8-17.2-57.8-19.2a1.52 1.52 0 0 1-1.4-1.5v-25h-28.8V110a1.6 1.6 0 0 1-1.3 1.5c-36.5 5-59.5 26.8-60 56.7-.6 29.5 18.5 47 58.5 53.3l1.6.3a1.508 1.508 0 0 1 1.2 1.5v46.1a1.606 1.606 0 0 1-.5 1.1 1.746 1.746 0 0 1-1.2.4c-17.5-2.4-34.9-9.3-48-18.8l-18 27.9c16.3 12.4 40.4 20.7 66.4 22.9a1.52 1.52 0 0 1 1.4 1.5zm30.1-60.5a1.4 1.4 0 0 1-.9-.3 1.425 1.425 0 0 1-.6-1.2v-39.7a1.425 1.425 0 0 1 .6-1.2 1.517 1.517 0 0 1 1.3-.3c10.1 2.6 23.5 7.5 23.3 20.2-.3 10.9-8.6 18.8-23.4 22.3-.1.1-.2.2-.3.2zm1.5-39.3v35.8c12.2-3.4 19-10.1 19.2-19 .1-7.8-5.8-13-19.2-16.8zm-33.3-44h-.4c-10.8-2.8-23.2-7.6-23-20.4.3-10.8 8.5-18.6 23.1-22.1a1.592 1.592 0 0 1 1.3.3 1.425 1.425 0 0 1 .6 1.2v39.5a1.425 1.425 0 0 1-.6 1.2 1.929 1.929 0 0 1-1 .3zm-1.5-39.1c-12 3.3-18.7 9.9-18.9 18.7-.1 8.1 5.6 13.2 18.9 16.9z" fill="#f3f6e6"/></svg></g><g transform="translate(292.0 564.0) rotate(0.0 229.5 185.5) scale(0.5602616995825501 0.562376837956647)"><svg width="819.26" height="659.7" viewBox="0 0 819.26 659.7"><path d="M729.58 654.7h-575.4c-57 0-97.6-55.3-80.5-109.6l98.5-313.4a84.263 84.263 0 0 1 80.5-59.1h378.5a84.355 84.355 0 0 1 80.5 59.1l98.5 313.4c17 54.3-23.6 109.6-80.6 109.6z" fill="#383a48"/><path d="M729.58 659.7h-575.4a89.377 89.377 0 0 1-85.2-116.2l98.5-313.4a89.089 89.089 0 0 1 85.3-62.6h378.5a89.056 89.056 0 0 1 85.3 62.6l98.5 313.4a89.378 89.378 0 0 1-85.5 116.2zm-476.9-482.2a78.972 78.972 0 0 0-75.7 55.6l-98.5 313.4a79.3 79.3 0 0 0 75.7 103.1h575.4a79.3 79.3 0 0 0 75.7-103.1l-98.5-313.4a79.1 79.1 0 0 0-75.7-55.6z" fill="#383a48"/><path d="M498.38 172.5h-40v-51.2a81.3 81.3 0 0 0-162.6 0v51.2h-40v-51.2a121.3 121.3 0 0 1 242.6 0z" fill="#383a48"/><path d="M664.78 654.7H89.38c-57 0-97.6-55.3-80.5-109.6l98.5-313.4a84.263 84.263 0 0 1 80.5-59.1h378.5a84.355 84.355 0 0 1 80.5 59.1l98.5 313.4c17 54.3-23.6 109.6-80.6 109.6z" fill="#e0719e"/><path d="M664.78 659.7H89.38a89.377 89.377 0 0 1-85.2-116.2l98.5-313.4a89.089 89.089 0 0 1 85.3-62.6h378.5a89.056 89.056 0 0 1 85.3 62.6l98.5 313.4a89.378 89.378 0 0 1-85.5 116.2zm-476.9-482.2a78.972 78.972 0 0 0-75.7 55.6l-98.5 313.4a79.3 79.3 0 0 0 75.7 103.1h575.4a79.3 79.3 0 0 0 75.7-103.1l-98.5-313.4a79.1 79.1 0 0 0-75.7-55.6z" fill="#383a48"/><circle cx="275.88" cy="172.5" fill="#f6e049" r="26.1"/><path d="M275.88 203.6a31.1 31.1 0 1 1 31.1-31.1 31.133 31.133 0 0 1-31.1 31.1zm0-52.1a21.1 21.1 0 1 0 21.1 21.1 21.1 21.1 0 0 0-21.1-21.1z" fill="#383a48"/><circle cx="478.38" cy="172.5" fill="#f6e049" r="26.1"/><g fill="#383a48"><path d="M478.38 203.6a31.1 31.1 0 1 1 31.1-31.1 31.133 31.133 0 0 1-31.1 31.1zm0-52.1a21.1 21.1 0 1 0 21.1 21.1 21.1 21.1 0 0 0-21.1-21.1z"/><circle cx="725.78" cy="531.9" r="5"/><circle cx="725.78" cy="575.9" r="5"/><circle cx="725.78" cy="619.9" r="5"/><circle cx="681.78" cy="355.9" r="5"/><circle cx="681.78" cy="399.9" r="5"/><circle cx="681.78" cy="443.9" r="5"/><circle cx="681.78" cy="487.9" r="5"/><circle cx="681.78" cy="531.9" r="5"/><circle cx="681.78" cy="575.9" r="5"/><circle cx="681.78" cy="619.9" r="5"/><circle cx="637.78" cy="311.9" r="5"/><circle cx="637.78" cy="355.9" r="5"/><circle cx="637.78" cy="399.9" r="5"/><circle cx="637.78" cy="443.9" r="5"/><circle cx="637.78" cy="487.9" r="5"/><circle cx="637.78" cy="531.9" r="5"/><circle cx="637.78" cy="575.9" r="5"/><circle cx="637.78" cy="619.9" r="5"/><circle cx="593.78" cy="311.9" r="5"/><circle cx="593.78" cy="355.9" r="5"/><circle cx="593.78" cy="399.9" r="5"/><circle cx="593.78" cy="443.9" r="5"/><circle cx="593.78" cy="487.9" r="5"/><circle cx="593.78" cy="531.9" r="5"/><circle cx="593.78" cy="575.9" r="5"/><circle cx="593.78" cy="619.9" r="5"/><circle cx="549.78" cy="311.9" r="5"/><circle cx="549.78" cy="355.9" r="5"/><circle cx="549.78" cy="399.9" r="5"/><circle cx="549.78" cy="443.9" r="5"/><circle cx="549.78" cy="487.9" r="5"/><circle cx="549.78" cy="531.9" r="5"/><circle cx="549.78" cy="575.9" r="5"/><circle cx="549.78" cy="619.9" r="5"/><circle cx="505.78" cy="311.9" r="5"/><circle cx="505.78" cy="355.9" r="5"/><circle cx="505.78" cy="399.9" r="5"/><circle cx="505.78" cy="443.9" r="5"/><circle cx="505.78" cy="487.9" r="5"/><circle cx="505.78" cy="531.9" r="5"/><circle cx="505.78" cy="575.9" r="5"/><circle cx="505.78" cy="619.9" r="5"/><circle cx="461.78" cy="311.9" r="5"/><circle cx="461.78" cy="355.9" r="5"/><circle cx="461.78" cy="399.9" r="5"/><circle cx="461.78" cy="443.9" r="5"/><circle cx="461.78" cy="487.9" r="5"/><circle cx="461.78" cy="531.9" r="5"/><circle cx="461.78" cy="575.9" r="5"/><circle cx="461.78" cy="619.9" r="5"/><circle cx="417.78" cy="311.9" r="5"/><circle cx="417.78" cy="355.9" r="5"/><circle cx="417.78" cy="399.9" r="5"/><circle cx="417.78" cy="443.9" r="5"/><circle cx="417.78" cy="487.9" r="5"/><circle cx="417.78" cy="531.9" r="5"/><circle cx="417.78" cy="575.9" r="5"/><circle cx="417.78" cy="619.9" r="5"/><circle cx="373.78" cy="311.9" r="5"/><circle cx="373.78" cy="355.9" r="5"/><circle cx="373.78" cy="399.9" r="5"/><circle cx="373.78" cy="443.9" r="5"/><circle cx="373.78" cy="487.9" r="5"/><circle cx="373.78" cy="531.9" r="5"/><circle cx="373.78" cy="575.9" r="5"/><circle cx="373.78" cy="619.9" r="5"/><circle cx="329.78" cy="311.9" r="5"/><circle cx="329.78" cy="355.9" r="5"/><circle cx="329.78" cy="399.9" r="5"/><circle cx="329.78" cy="443.9" r="5"/><circle cx="329.78" cy="487.9" r="5"/><circle cx="329.78" cy="531.9" r="5"/><circle cx="329.78" cy="575.9" r="5"/><circle cx="329.78" cy="619.9" r="5"/><circle cx="285.78" cy="311.9" r="5"/><circle cx="285.78" cy="355.9" r="5"/><circle cx="285.78" cy="399.9" r="5"/><circle cx="285.78" cy="443.9" r="5"/><circle cx="285.78" cy="487.9" r="5"/><circle cx="285.78" cy="531.9" r="5"/><circle cx="285.78" cy="575.9" r="5"/><circle cx="285.78" cy="619.9" r="5"/><circle cx="241.78" cy="311.9" r="5"/><circle cx="241.78" cy="355.9" r="5"/><circle cx="241.78" cy="399.9" r="5"/><circle cx="241.78" cy="443.9" r="5"/><circle cx="241.78" cy="487.9" r="5"/><circle cx="241.78" cy="531.9" r="5"/><circle cx="241.78" cy="575.9" r="5"/><circle cx="241.78" cy="619.9" r="5"/><circle cx="197.78" cy="311.9" r="5"/><circle cx="197.78" cy="355.9" r="5"/><circle cx="197.78" cy="399.9" r="5"/><circle cx="197.78" cy="443.9" r="5"/><circle cx="197.78" cy="487.9" r="5"/><circle cx="197.78" cy="531.9" r="5"/><circle cx="197.78" cy="575.9" r="5"/><circle cx="197.78" cy="619.9" r="5"/><circle cx="153.78" cy="311.9" r="5"/><circle cx="153.78" cy="355.9" r="5"/><circle cx="153.78" cy="399.9" r="5"/><circle cx="153.78" cy="443.9" r="5"/><circle cx="153.78" cy="487.9" r="5"/><circle cx="153.78" cy="531.9" r="5"/><circle cx="153.78" cy="575.9" r="5"/><circle cx="153.78" cy="619.9" r="5"/><circle cx="109.78" cy="311.9" r="5"/><circle cx="109.78" cy="355.9" r="5"/><circle cx="109.78" cy="399.9" r="5"/><circle cx="109.78" cy="443.9" r="5"/><circle cx="109.78" cy="487.9" r="5"/><circle cx="109.78" cy="531.9" r="5"/><circle cx="109.78" cy="575.9" r="5"/><circle cx="109.78" cy="619.9" r="5"/><circle cx="65.78" cy="399.9" r="5"/><circle cx="65.78" cy="443.9" r="5"/><circle cx="65.78" cy="487.9" r="5"/><circle cx="65.78" cy="531.9" r="5"/><circle cx="65.78" cy="575.9" r="5"/><circle cx="65.78" cy="619.9" r="5"/><circle cx="21.78" cy="531.9" r="5"/><circle cx="21.78" cy="575.9" r="5"/><circle cx="21.78" cy="619.9" r="5"/><path d="M90.28 281h573.7v10H90.28z"/></g></svg></g></svg>